<svg width="191" height="37" fill="none" xmlns="http://www.w3.org/2000/svg"><path d="M5.41 15.532a1.317 1.317 0 0 1 1.319 0l1.488.86c.408.235.66.67.66 1.141v1.719c0 .47-.252.906-.66 1.142l-1.488.859c-.408.235-.91.235-1.319 0l-1.488-.86a1.318 1.318 0 0 1-.66-1.141v-1.719c0-.47.252-.906.66-1.142l1.488-.859Zm6.483 0c.408-.236.91-.236 1.318 0l1.489.86c.407.235.659.67.659 1.141v1.719c0 .47-.252.906-.66 1.142l-1.488.859a1.32 1.32 0 0 1-1.318 0l-1.489-.86a1.318 1.318 0 0 1-.659-1.141v-1.719c0-.47.251-.906.66-1.142l1.488-.859Zm6.482 0c.407-.236.91-.236 1.318 0l1.488.86c.408.235.66.67.66 1.141v1.719c0 .47-.252.906-.66 1.142l-1.488.859a1.32 1.32 0 0 1-1.318 0l-1.489-.86a1.318 1.318 0 0 1-.66-1.141v-1.719c0-.47.252-.906.66-1.142l1.489-.859Zm6.482 0c.408-.236.91-.236 1.318 0l1.489.86c.408.235.66.67.66 1.141v1.719c0 .47-.252.906-.66 1.142l-1.489.859a1.32 1.32 0 0 1-1.318 0l-1.488-.86a1.318 1.318 0 0 1-.66-1.141v-1.719c0-.47.252-.906.66-1.142l1.488-.859ZM8.633 21.025c.408-.235.91-.235 1.319 0l1.488.86c.408.235.66.67.66 1.141v1.719c0 .471-.252.906-.66 1.142l-1.488.86c-.408.235-.91.235-1.319 0l-1.488-.86a1.318 1.318 0 0 1-.66-1.142v-1.719c0-.47.252-.906.66-1.142l1.488-.859Zm6.482 0c.408-.235.91-.235 1.319 0l1.488.86c.408.235.66.67.66 1.141v1.719c0 .471-.252.906-.66 1.142l-1.488.86c-.408.235-.91.235-1.319 0l-1.488-.86a1.318 1.318 0 0 1-.66-1.142v-1.719c0-.47.252-.906.66-1.142l1.488-.859Zm6.483 0a1.32 1.32 0 0 1 1.318 0l1.488.86c.408.235.66.67.66 1.141v1.719c0 .471-.252.906-.66 1.142l-1.488.86c-.408.235-.91.235-1.319 0l-1.488-.86a1.318 1.318 0 0 1-.66-1.142v-1.719c0-.47.252-.906.66-1.142l1.488-.859ZM8.633 10.002c.408-.236.91-.236 1.319 0l1.488.86c.408.235.66.67.66 1.141v1.719c0 .47-.252.906-.66 1.142l-1.488.859c-.408.235-.91.235-1.319 0l-1.488-.86a1.318 1.318 0 0 1-.66-1.141v-1.719c0-.471.252-.906.66-1.142l1.488-.86Zm6.482 0c.408-.236.91-.236 1.319 0l1.488.86c.408.235.66.67.66 1.141v1.719c0 .47-.252.906-.66 1.142l-1.488.859c-.408.235-.91.235-1.319 0l-1.488-.86a1.318 1.318 0 0 1-.66-1.141v-1.719c0-.471.252-.906.66-1.142l1.488-.86Zm6.483 0c.407-.236.91-.236 1.318 0l1.488.86c.408.235.66.67.66 1.141v1.719c0 .47-.252.906-.66 1.142l-1.488.859c-.408.235-.91.235-1.319 0l-1.488-.86a1.318 1.318 0 0 1-.66-1.141v-1.719c0-.471.252-.906.66-1.142l1.488-.86Zm15.719 19.269a.663.663 0 0 1-.49-.184.774.774 0 0 1-.185-.521V8.536c0-.226.062-.4.184-.522a.614.614 0 0 1 .491-.215h8.374c2.168 0 3.804.522 4.908 1.565 1.104 1.043 1.656 2.402 1.656 4.08 0 1.144-.265 2.106-.797 2.883-.532.756-1.155 1.308-1.871 1.656.88.43 1.615 1.094 2.208 1.994.593.9.89 1.932.89 3.098 0 1.145-.266 2.188-.798 3.129-.51.94-1.278 1.687-2.3 2.239-1.023.552-2.24.828-3.65.828h-8.62Zm7.914-12.361c1.33 0 2.341-.297 3.037-.89.695-.614 1.043-1.462 1.043-2.546 0-1.063-.348-1.871-1.043-2.423-.675-.552-1.687-.829-3.037-.829h-5.705v6.688h5.705Zm.307 9.938c1.309 0 2.331-.348 3.067-1.043.757-.716 1.135-1.626 1.135-2.73 0-1.125-.378-2.035-1.135-2.73-.736-.695-1.758-1.043-3.067-1.043h-6.012v7.546h6.012Zm13.742 2.73a6.409 6.409 0 0 1-2.792-.613c-.838-.41-1.513-.962-2.024-1.657a4.087 4.087 0 0 1-.736-2.362c0-1.35.552-2.454 1.656-3.313 1.104-.858 2.607-1.431 4.51-1.717l4.6-.645v-.89c0-2.105-1.216-3.159-3.65-3.159-.94 0-1.697.195-2.27.583-.572.368-.992.808-1.258 1.32-.081.204-.173.347-.276.429-.081.061-.204.092-.368.092h-1.196a.733.733 0 0 1-.49-.184.733.733 0 0 1-.185-.491c0-.47.215-1.012.644-1.626.45-.634 1.135-1.176 2.056-1.626.92-.47 2.044-.705 3.374-.705 2.29 0 3.926.532 4.907 1.595 1.003 1.063 1.504 2.393 1.504 3.988v9.969a.71.71 0 0 1-.215.521.663.663 0 0 1-.49.184h-1.35a.663.663 0 0 1-.491-.184.774.774 0 0 1-.184-.521v-1.35c-.45.675-1.105 1.237-1.964 1.687-.858.45-1.963.675-3.312.675Zm.613-2.24c1.35 0 2.454-.439 3.313-1.318.859-.88 1.288-2.158 1.288-3.834v-.86l-3.589.522c-1.472.205-2.587.552-3.343 1.043-.757.49-1.135 1.104-1.135 1.84 0 .839.337 1.483 1.012 1.933.695.45 1.513.675 2.454.675Zm10.73 1.933a.774.774 0 0 1-.521-.184.774.774 0 0 1-.184-.521V8.198c0-.225.06-.399.184-.521a.774.774 0 0 1 .521-.184h1.32c.204 0 .367.071.49.214a.614.614 0 0 1 .215.491v10.705l6.134-5.06c.307-.226.522-.369.645-.43.122-.062.317-.092.582-.092h1.534a.53.53 0 0 1 .43.184c.122.102.184.255.184.46 0 .184-.113.378-.338.583l-7.178 5.889 7.945 7.607c.225.225.338.42.338.583a.624.624 0 0 1-.185.46.528.528 0 0 1-.429.184h-1.503c-.307 0-.532-.03-.675-.092-.123-.061-.307-.204-.552-.43l-6.932-6.563v6.38a.71.71 0 0 1-.215.521.663.663 0 0 1-.49.184h-1.32Zm13.61-18.956a.774.774 0 0 1-.521-.184.774.774 0 0 1-.184-.522V8.014a.77.77 0 0 1 .184-.521.71.71 0 0 1 .521-.215h1.81a.71.71 0 0 1 .521.215.71.71 0 0 1 .215.521v1.595a.71.71 0 0 1-.215.521.774.774 0 0 1-.521.184h-1.81Zm.245 18.956a.774.774 0 0 1-.521-.184.775.775 0 0 1-.184-.521v-14.54a.66.66 0 0 1 .184-.49.71.71 0 0 1 .522-.215h1.35c.204 0 .367.071.49.214a.614.614 0 0 1 .215.491v14.54a.71.71 0 0 1-.215.521.663.663 0 0 1-.49.184h-1.35Z" fill="#fff"/><path opacity=".4" d="M95.087 29.271a.663.663 0 0 1-.491-.184.774.774 0 0 1-.184-.521V8.536c0-.226.061-.4.184-.522a.614.614 0 0 1 .49-.215h8.375c2.167 0 3.803.522 4.908 1.565 1.104 1.043 1.656 2.402 1.656 4.08 0 1.144-.266 2.106-.797 2.883-.532.756-1.156 1.308-1.872 1.656.88.43 1.616 1.094 2.209 1.994.593.9.889 1.932.889 3.098 0 1.145-.265 2.188-.797 3.129-.511.94-1.278 1.687-2.301 2.239-1.022.552-2.239.828-3.65.828h-8.62ZM103 16.91c1.329 0 2.341-.297 3.036-.89.696-.614 1.043-1.462 1.043-2.546 0-1.063-.347-1.871-1.043-2.423-.674-.552-1.687-.829-3.036-.829h-5.706v6.688H103Zm.306 9.938c1.309 0 2.332-.348 3.068-1.043.756-.716 1.135-1.626 1.135-2.73 0-1.125-.379-2.035-1.135-2.73-.736-.695-1.759-1.043-3.068-1.043h-6.012v7.546h6.012Zm9.785-16.533a.773.773 0 0 1-.521-.184.773.773 0 0 1-.184-.522V8.014a.77.77 0 0 1 .184-.521.71.71 0 0 1 .521-.215h1.81a.71.71 0 0 1 .521.215.707.707 0 0 1 .215.521v1.595a.707.707 0 0 1-.215.521.773.773 0 0 1-.521.184h-1.81Zm.246 18.956a.774.774 0 0 1-.522-.184.773.773 0 0 1-.184-.521v-14.54a.66.66 0 0 1 .184-.49.71.71 0 0 1 .522-.215h1.349c.205 0 .368.071.491.214a.615.615 0 0 1 .215.491v14.54a.71.71 0 0 1-.215.521.663.663 0 0 1-.491.184h-1.349Zm11.295.307c-2.25 0-3.988-.634-5.215-1.902-1.206-1.268-1.85-2.955-1.932-5.061l-.031-1.32.031-1.318c.082-2.106.736-3.794 1.963-5.061 1.247-1.268 2.975-1.902 5.184-1.902 2.208 0 3.926.634 5.153 1.902 1.248 1.267 1.912 2.955 1.994 5.06a14.53 14.53 0 0 1 0 2.639c-.082 2.106-.736 3.793-1.963 5.061-1.207 1.268-2.935 1.902-5.184 1.902Zm0-2.3c1.309 0 2.341-.41 3.098-1.228.777-.838 1.196-2.034 1.258-3.588.02-.205.03-.593.03-1.166s-.01-.961-.03-1.166c-.062-1.554-.481-2.74-1.258-3.558-.757-.838-1.789-1.258-3.098-1.258s-2.352.42-3.129 1.258c-.756.818-1.165 2.004-1.227 3.558l-.03 1.166.03 1.166c.062 1.554.471 2.75 1.227 3.588.777.818 1.82 1.227 3.129 1.227Zm12.103 1.993a.776.776 0 0 1-.522-.184.778.778 0 0 1-.184-.521V10.437h-5.92a.773.773 0 0 1-.521-.184.773.773 0 0 1-.184-.521V8.535c0-.225.061-.398.184-.521a.71.71 0 0 1 .521-.215h14.724c.225 0 .399.072.521.215.123.123.184.296.184.521v1.197a.71.71 0 0 1-.214.521.665.665 0 0 1-.491.184h-5.89v18.129a.71.71 0 0 1-.214.521.774.774 0 0 1-.522.184h-1.472Zm13.449.307c-2.086 0-3.753-.644-5-1.933-1.247-1.308-1.933-3.087-2.055-5.337l-.031-1.043.031-1.012c.122-2.209.808-3.967 2.055-5.276 1.247-1.309 2.914-1.963 5-1.963 2.249 0 3.988.716 5.214 2.147 1.248 1.432 1.872 3.374 1.872 5.828v.552a.71.71 0 0 1-.215.522.663.663 0 0 1-.491.184H145.92v.276c.061 1.33.47 2.464 1.227 3.405.757.94 1.759 1.41 3.006 1.41.961 0 1.738-.183 2.331-.551.614-.389 1.074-.788 1.381-1.197.184-.245.327-.388.429-.43.102-.06.276-.091.522-.091h1.349c.184 0 .338.051.46.153a.468.468 0 0 1 .215.399c0 .45-.276.992-.828 1.626-.552.634-1.339 1.186-2.362 1.656-1.002.45-2.157.675-3.466.675Zm4.294-9.417v-.092c0-1.431-.388-2.597-1.165-3.497-.777-.9-1.82-1.35-3.129-1.35-1.329 0-2.372.45-3.129 1.35-.757.9-1.135 2.066-1.135 3.497v.092h8.558Zm11.061 9.417c-2.188 0-3.895-.613-5.122-1.84-1.227-1.248-1.872-2.986-1.933-5.215l-.031-1.227.031-1.227c.061-2.229.706-3.957 1.933-5.184 1.227-1.247 2.934-1.871 5.122-1.871 1.473 0 2.71.266 3.712.797 1.022.512 1.779 1.156 2.27 1.933.511.777.787 1.554.828 2.331.02.184-.051.348-.215.49a.676.676 0 0 1-.491.216h-1.349c-.205 0-.358-.041-.46-.123-.103-.102-.205-.276-.307-.521-.368-1.003-.879-1.708-1.534-2.117-.634-.43-1.442-.644-2.423-.644-1.288 0-2.311.399-3.068 1.196-.756.798-1.165 2.014-1.227 3.65l-.03 1.074.03 1.073c.062 1.637.471 2.853 1.227 3.65.757.798 1.78 1.197 3.068 1.197 1.002 0 1.82-.204 2.454-.613.634-.43 1.135-1.146 1.503-2.148.102-.245.204-.409.307-.49.102-.103.255-.154.46-.154h1.349c.184 0 .348.072.491.215.164.143.235.307.215.49-.041.757-.317 1.524-.828 2.301-.491.777-1.248 1.432-2.27 1.963-1.002.532-2.239.798-3.712.798Zm9.381-.307a.774.774 0 0 1-.522-.184.773.773 0 0 1-.184-.521V8.198c0-.225.061-.399.184-.521a.774.774 0 0 1 .522-.184h1.411c.225 0 .398.06.521.184.123.122.184.296.184.521v7.147c.593-.757 1.288-1.33 2.086-1.718.818-.409 1.82-.613 3.006-.613 1.963 0 3.487.634 4.57 1.902 1.105 1.247 1.657 2.904 1.657 4.969v8.68a.71.71 0 0 1-.215.522.663.663 0 0 1-.491.184h-1.441a.774.774 0 0 1-.522-.184.778.778 0 0 1-.184-.521v-8.497c0-1.472-.358-2.618-1.073-3.436-.716-.817-1.749-1.226-3.099-1.226-1.308 0-2.351.419-3.128 1.257-.777.818-1.166 1.953-1.166 3.405v8.497a.707.707 0 0 1-.215.521.661.661 0 0 1-.49.184h-1.411Z" fill="#fff"/></svg>