<svg viewBox="0 0 24 25" xmlns="http://www.w3.org/2000/svg"><style><![CDATA[:root>svg{display:none}:root>svg:target{display:block}]]></style><svg viewBox="0 0 24 25" id="basket" xmlns="http://www.w3.org/2000/svg"><path d="M15.95 4.184 17.052 7.5H19a3 3 0 0 1 2.962 3.477l-1.252 7.131a4 4 0 0 1-3.954 3.392H7.244a3.994 3.994 0 0 1-3.95-3.371l-1.258-7.173A3 3 0 0 1 5 7.5h1.945L8.05 4.184a1 1 0 0 1 1.898.632L9.053 7.5h5.893l-.895-2.684a1 1 0 0 1 1.898-.632ZM12 11.5a3 3 0 0 0-2.995 2.824L9 14.5a3 3 0 1 0 3-3Z"/></svg><svg viewBox="0 0 24 24" id="geo" xmlns="http://www.w3.org/2000/svg"><path fill-rule="evenodd" clip-rule="evenodd" d="M12 4.5a7.485 7.485 0 0 1 6 3 7.467 7.467 0 0 1 1.5 4.5 7.47 7.47 0 0 1-1.498 4.5H18a7.5 7.5 0 0 1-12 .002V16.5a7.5 7.5 0 0 1 6-12Zm1.422 12h-2.844c.415.939.934 1.5 1.422 1.5.488 0 1.005-.561 1.422-1.5ZM9 16.5l-.967.002c.412.364.87.667 1.37.909A9 9 0 0 1 9 16.5m6.967.002H15c-.118.31-.252.614-.403.909a6.029 6.029 0 0 0 1.37-.909Zm-7.699-3.75H6.046a6 6 0 0 0 .758 2.25h1.758a13.5 13.5 0 0 1-.294-2.25Zm5.962 0H9.77c.045.816.155 1.575.315 2.25h3.829c.16-.675.273-1.434.315-2.25m3.723 0H15.73c-.034.757-.133 1.51-.293 2.25h1.758a6 6 0 0 0 .757-2.25ZM8.562 9h-1.76a5.967 5.967 0 0 0-.755 2.25h2.221A13.5 13.5 0 0 1 8.562 9Zm5.352 0h-3.828a12.6 12.6 0 0 0-.315 2.248h4.46a12.75 12.75 0 0 0-.316-2.25M17.198 9h-1.76c.153.7.255 1.458.294 2.25h2.221A6 6 0 0 0 17.198 9ZM9.403 6.59l-.186.093c-.43.226-.825.498-1.184.817H9c.118-.31.252-.615.403-.91ZM12 6c-.489 0-1.007.563-1.422 1.5h2.844C13.007 6.564 12.489 6 12 6Zm2.595.59.057.106c.125.252.241.52.348.804h.969a6 6 0 0 0-1.372-.91"/></svg></svg>